<?xml version="1.0" encoding="UTF-8" standalone="no"?>
<!-- Generator: Adobe Illustrator 16.0.0, SVG Export Plug-In . SVG Version: 6.00 Build 0)  -->

<svg
   xmlns:dc="http://purl.org/dc/elements/1.1/"
   xmlns:cc="http://creativecommons.org/ns#"
   xmlns:rdf="http://www.w3.org/1999/02/22-rdf-syntax-ns#"
   xmlns:svg="http://www.w3.org/2000/svg"
   xmlns="http://www.w3.org/2000/svg"
   xmlns:sodipodi="http://sodipodi.sourceforge.net/DTD/sodipodi-0.dtd"
   xmlns:inkscape="http://www.inkscape.org/namespaces/inkscape"
   version="1.1"
   id="Capa_1"
   x="0px"
   y="0px"
   width="86px"
   height="90px"
   viewBox="0 0 86 90"
   style="enable-background:new 0 0 86 90;"
   xml:space="preserve"
   inkscape:version="0.48.4 r9939"
   sodipodi:docname="icon.svg"
   inkscape:export-filename="/home/varun/projects/noise/icon.png"
   inkscape:export-xdpi="90"
   inkscape:export-ydpi="90"><metadata
     id="metadata39"><rdf:RDF><cc:Work
         rdf:about=""><dc:format>image/svg+xml</dc:format><dc:type
           rdf:resource="http://purl.org/dc/dcmitype/StillImage" /><dc:title></dc:title></cc:Work></rdf:RDF></metadata><defs
     id="defs37" /><sodipodi:namedview
     pagecolor="#ffffff"
     bordercolor="#666666"
     borderopacity="1"
     objecttolerance="10"
     gridtolerance="10"
     guidetolerance="10"
     inkscape:pageopacity="0"
     inkscape:pageshadow="2"
     inkscape:window-width="1920"
     inkscape:window-height="1056"
     id="namedview35"
     showgrid="false"
     inkscape:zoom="7.4167645"
     inkscape:cx="41.109555"
     inkscape:cy="69.735507"
     inkscape:window-x="0"
     inkscape:window-y="24"
     inkscape:window-maximized="1"
     inkscape:current-layer="Capa_1" /><path
     d="M 70.912175,33.519507 C 64.792427,19.282088 54.9458,8.4376598 49.962974,10.464179 c -8.460833,3.43859 5.04002,19.953717 -36.507488,36.84215 -3.5885321,1.458445 -4.4982241,7.296861 -2.996498,10.787234 1.498635,3.489601 6.408037,6.963745 9.998113,5.5053 0.620632,-0.251961 2.901431,-0.985435 2.901431,-0.985435 2.562906,3.439363 5.24561,1.399705 6.197038,3.58544 1.143105,2.626282 3.630268,8.335625 4.474263,10.277899 0.847089,1.940729 2.763858,3.738472 4.155834,3.209816 1.387339,-0.528658 6.113565,-2.327174 7.922129,-3.015047 1.807018,-0.687873 2.238291,-2.298577 1.686447,-3.569981 -0.595898,-1.369563 -3.039006,-1.771467 -3.734607,-3.369804 -0.697148,-1.598339 -2.974084,-6.721057 -3.628722,-8.335625 -0.89037,-2.195783 1.000893,-3.981933 3.748519,-4.267903 18.910316,-1.97087 22.445517,9.708279 28.883696,7.089726 4.982053,-2.026519 3.967248,-16.460252 -2.150954,-30.698442 z M 68.782087,56.61657 C 67.675309,57.066392 60.233145,51.196288 55.476776,40.127721 50.721953,29.061474 51.319397,18.944334 52.424631,18.495285 c 1.105234,-0.449823 8.364223,6.631401 13.119819,17.69765 4.754822,11.066248 4.344418,19.973813 3.237637,20.423635 z"
     id="path3"
     inkscape:connector-curvature="0"
     style="fill:#ffffff;fill-opacity:1"
     inkscape:export-xdpi="90"
     inkscape:export-ydpi="90"
     inkscape:export-filename="/home/varun/projects/noise/icon.png" /><g
     id="g5"
     transform="matrix(0.77289063,0,0,0.77289063,9.7657053,10.219946)"
     style="fill:#ffffff;fill-opacity:1"
     inkscape:export-filename="/home/varun/projects/noise/icon.png"
     inkscape:export-xdpi="90"
     inkscape:export-ydpi="90" /><g
     id="g7"
     transform="matrix(0.77289063,0,0,0.77289063,9.7657053,10.219946)"
     style="fill:#ffffff;fill-opacity:1"
     inkscape:export-filename="/home/varun/projects/noise/icon.png"
     inkscape:export-xdpi="90"
     inkscape:export-ydpi="90" /><g
     id="g9"
     transform="matrix(0.77289063,0,0,0.77289063,9.7657053,10.219946)"
     style="fill:#ffffff;fill-opacity:1"
     inkscape:export-filename="/home/varun/projects/noise/icon.png"
     inkscape:export-xdpi="90"
     inkscape:export-ydpi="90" /><g
     id="g11"
     transform="matrix(0.77289063,0,0,0.77289063,9.7657053,10.219946)"
     style="fill:#ffffff;fill-opacity:1"
     inkscape:export-filename="/home/varun/projects/noise/icon.png"
     inkscape:export-xdpi="90"
     inkscape:export-ydpi="90" /><g
     id="g13"
     transform="matrix(0.77289063,0,0,0.77289063,9.7657053,10.219946)"
     style="fill:#ffffff;fill-opacity:1"
     inkscape:export-filename="/home/varun/projects/noise/icon.png"
     inkscape:export-xdpi="90"
     inkscape:export-ydpi="90" /><g
     id="g15"
     transform="matrix(0.77289063,0,0,0.77289063,9.7657053,10.219946)"
     style="fill:#ffffff;fill-opacity:1"
     inkscape:export-filename="/home/varun/projects/noise/icon.png"
     inkscape:export-xdpi="90"
     inkscape:export-ydpi="90" /><g
     id="g17"
     transform="matrix(0.77289063,0,0,0.77289063,9.7657053,10.219946)"
     style="fill:#ffffff;fill-opacity:1"
     inkscape:export-filename="/home/varun/projects/noise/icon.png"
     inkscape:export-xdpi="90"
     inkscape:export-ydpi="90" /><g
     id="g19"
     transform="matrix(0.77289063,0,0,0.77289063,9.7657053,10.219946)"
     style="fill:#ffffff;fill-opacity:1"
     inkscape:export-filename="/home/varun/projects/noise/icon.png"
     inkscape:export-xdpi="90"
     inkscape:export-ydpi="90" /><g
     id="g21"
     transform="matrix(0.77289063,0,0,0.77289063,9.7657053,10.219946)"
     style="fill:#ffffff;fill-opacity:1"
     inkscape:export-filename="/home/varun/projects/noise/icon.png"
     inkscape:export-xdpi="90"
     inkscape:export-ydpi="90" /><g
     id="g23"
     transform="matrix(0.77289063,0,0,0.77289063,9.7657053,10.219946)"
     style="fill:#ffffff;fill-opacity:1"
     inkscape:export-filename="/home/varun/projects/noise/icon.png"
     inkscape:export-xdpi="90"
     inkscape:export-ydpi="90" /><g
     id="g25"
     transform="matrix(0.77289063,0,0,0.77289063,9.7657053,10.219946)"
     style="fill:#ffffff;fill-opacity:1"
     inkscape:export-filename="/home/varun/projects/noise/icon.png"
     inkscape:export-xdpi="90"
     inkscape:export-ydpi="90" /><g
     id="g27"
     transform="matrix(0.77289063,0,0,0.77289063,9.7657053,10.219946)"
     style="fill:#ffffff;fill-opacity:1"
     inkscape:export-filename="/home/varun/projects/noise/icon.png"
     inkscape:export-xdpi="90"
     inkscape:export-ydpi="90" /><g
     id="g29"
     transform="matrix(0.77289063,0,0,0.77289063,9.7657053,10.219946)"
     style="fill:#ffffff;fill-opacity:1"
     inkscape:export-filename="/home/varun/projects/noise/icon.png"
     inkscape:export-xdpi="90"
     inkscape:export-ydpi="90" /><g
     id="g31"
     transform="matrix(0.77289063,0,0,0.77289063,9.7657053,10.219946)"
     style="fill:#ffffff;fill-opacity:1"
     inkscape:export-filename="/home/varun/projects/noise/icon.png"
     inkscape:export-xdpi="90"
     inkscape:export-ydpi="90" /><g
     id="g33"
     transform="matrix(0.77289063,0,0,0.77289063,9.7657053,10.219946)"
     style="fill:#ffffff;fill-opacity:1"
     inkscape:export-filename="/home/varun/projects/noise/icon.png"
     inkscape:export-xdpi="90"
     inkscape:export-ydpi="90" /></svg>